<?xml version="1.0" ?>
<svg xmlns="http://www.w3.org/2000/svg" xmlns:xlink="http://www.w3.org/1999/xlink" id="Layer_1" width="64px" height="64px" enable-background="new 0 0 64 64" version="1.1" viewBox="0 0 64 64" xml:space="preserve">
    <!-- <circle cx="32" cy="32" r="32" fill="#C75C5C"/> -->
    <path fill="none" stroke="#FFFFFF" stroke-linecap="round" stroke-miterlimit="10" stroke-width="4" d="M44.237,34.309  c-6.304,7.474-18.17,7.474-24.474,0"/>
    <line x1="32" x2="32" y1="17" y2="12" fill="none" stroke="#FFFFFF" stroke-linecap="round" stroke-linejoin="round" stroke-miterlimit="10" stroke-width="4"/>
    <g opacity="0.2">
        <path fill="#231F20" d="M47.761,51.052L35.743,28.734c-1.396,1.225-3.018,1.672-5.042,0.744c-0.747-0.343-1.484-0.772-2.157-1.28   L16.239,51.052c-0.524,0.973-0.16,2.186,0.812,2.709c0.973,0.525,2.186,0.16,2.709-0.812L32,30.219l12.239,22.729   C44.6,53.619,45.29,54,46.002,54c0.32,0,0.644-0.077,0.946-0.24C47.921,53.237,48.285,52.024,47.761,51.052z"/>
    </g>
    <path fill="none" stroke="#FFFFFF" stroke-linecap="round" stroke-linejoin="round" stroke-miterlimit="10" stroke-width="4" d="  M35.144,29.839C39.272,37.505,46,50,46,50"/>
    <path fill="none" stroke="#FFFFFF" stroke-linecap="round" stroke-linejoin="round" stroke-miterlimit="10" stroke-width="4" d="  M18,50c0,0,6.843-12.708,10.96-20.355"/>
    <g opacity="0.2">
        <path fill="#231F20" d="M32,34c-4.411,0-8-3.589-8-8s3.589-8,8-8c4.411,0,8,3.589,8,8S36.411,34,32,34z M32,22   c-2.206,0-4,1.794-4,4s1.794,4,4,4c2.206,0,4-1.794,4-4S34.206,22,32,22z"/>
    </g>
    <circle cx="32" cy="24" r="6" fill="none" stroke="#FFFFFF" stroke-miterlimit="10" stroke-width="4"/>
</svg>
