<?xml version="1.0" encoding="utf-8"?>
<!-- Generator: Adobe Illustrator 16.0.0, SVG Export Plug-In . SVG Version: 6.00 Build 0)  -->
<!DOCTYPE svg PUBLIC "-//W3C//DTD SVG 1.1//EN" "http://www.w3.org/Graphics/SVG/1.1/DTD/svg11.dtd">
<svg version="1.1" id="Layer_3" xmlns="http://www.w3.org/2000/svg" xmlns:xlink="http://www.w3.org/1999/xlink" x="0px" y="0px"
	 width="46px" height="46px" viewBox="0 0 612 612" enable-background="new 0 0 612 612" xml:space="preserve">
<g>
	<path fill="#fff" d="M513.856,201.572c-9.862-17.803-22.077-33.269-36.505-46.553c-10.626-7.668-25.48-6.16-34.146,3.976
		c-8.897,10.435-7.832,25.917,2.118,35.136l-0.597-0.509c9.319,9.435,17.307,20.243,23.894,32.507
		c12.573,23.438,18.867,49.972,18.867,79.609c0,29.646-6.294,56.27-18.867,79.874c-12.585,23.608-30.164,41.964-52.732,55.056
		c-22.575,13.101-48.162,19.644-76.766,19.644h-66.688l-9.371,0.042V154.177h0.332v-0.045h111.662c7.238,0,13.19-2.326,17.843-6.979
		c4.653-4.654,6.975-10.595,6.975-17.833c0-7.239-2.321-13.186-6.975-17.838c-4.652-4.649-10.604-6.976-17.843-6.976
		c0,0-134.304-0.374-135.621-0.381H97.632c-7.239,0-13.183,2.328-17.836,6.977c-4.653,4.654-6.978,10.6-6.978,17.837
		c0,7.238,2.324,13.18,6.978,17.833s10.597,6.98,17.836,6.98h111.664v327.24c0,7.585,2.586,13.956,7.757,19.125
		c5.165,5.173,11.54,7.757,19.125,7.757h102.946c38.938,0,73.574-8.608,103.908-25.849c30.32-17.228,53.929-41.178,70.825-71.859
		c16.878-30.67,25.325-65.475,25.325-104.428C539.182,266.799,530.734,232.074,513.856,201.572z"/>
</g>
</svg>
