<?xml version="1.0" encoding="utf-8"?>
<!-- Generator: Adobe Illustrator 19.0.0, SVG Export Plug-In . SVG Version: 6.00 Build 0)  -->
<svg version="1.1" id="Layer_17" xmlns="http://www.w3.org/2000/svg" xmlns:xlink="http://www.w3.org/1999/xlink" x="0px" y="0px"
	 viewBox="0 0 192 192" enable-background="new 0 0 192 192" xml:space="preserve">
<g>
	<path fill="#fff" d="M39.7,100H24.3c-2.2,0-4-1.8-4-4v0c0-2.2,1.8-4,4-4h15.4c2.2,0,4,1.8,4,4v0C43.7,98.2,41.9,100,39.7,100z"/>
	<path fill="#fff" d="M168,100h-15.4c-2.2,0-4-1.8-4-4v0c0-2.2,1.8-4,4-4H168c2.2,0,4,1.8,4,4v0C172,98.2,170.2,100,168,100z"/>
	<path fill="#fff" d="M92,39.7V24.3c0-2.2,1.8-4,4-4h0c2.2,0,4,1.8,4,4v15.4c0,2.2-1.8,4-4,4h0C93.8,43.7,92,41.9,92,39.7z"/>
	<path fill="#fff" d="M92,167.7v-15.4c0-2.2,1.8-4,4-4h0c2.2,0,4,1.8,4,4v15.4c0,2.2-1.8,4-4,4h0C93.8,171.7,92,169.9,92,167.7z"/>
	<path fill="#fff" d="M96,68c15.5,0,28,12.5,28,28s-12.5,28-28,28s-28-12.5-28-28S80.5,68,96,68 M96,60c-19.9,0-36,16.1-36,36s16.1,36,36,36
		s36-16.1,36-36S115.9,60,96,60L96,60z"/>
	<path fill="#fff" d="M132.8,53.6l10.9-10.9c1.6-1.6,4.1-1.6,5.7,0v0c1.6,1.6,1.6,4.1,0,5.7l-10.9,10.9c-1.6,1.6-4.1,1.6-5.7,0l0,0
		C131.2,57.7,131.2,55.2,132.8,53.6z"/>
	<path fill="#fff" d="M42.7,143.7l10.9-10.9c1.6-1.6,4.1-1.6,5.7,0l0,0c1.6,1.6,1.6,4.1,0,5.7l-10.9,10.9c-1.6,1.6-4.1,1.6-5.7,0h0
		C41.1,147.8,41.1,145.3,42.7,143.7z"/>
	<path fill="#fff" d="M53.5,59.3L42.7,48.4c-1.6-1.6-1.6-4.1,0-5.7l0,0c1.6-1.6,4.1-1.6,5.7,0l10.9,10.9c1.6,1.6,1.6,4.1,0,5.7l0,0
		C57.6,60.9,55.1,60.9,53.5,59.3z"/>
	<path fill="#fff" d="M143.6,149.4l-10.9-10.9c-1.6-1.6-1.6-4.1,0-5.7v0c1.6-1.6,4.1-1.6,5.7,0l10.9,10.9c1.6,1.6,1.6,4.1,0,5.7v0
		C147.8,150.9,145.2,150.9,143.6,149.4z"/>
</g>
</svg>
