<?xml version="1.0" encoding="utf-8"?>
<!-- Generator: Adobe Illustrator 19.0.0, SVG Export Plug-In . SVG Version: 6.00 Build 0)  -->
<svg version="1.1" id="Layer_16" xmlns="http://www.w3.org/2000/svg" xmlns:xlink="http://www.w3.org/1999/xlink" x="0px" y="0px"
	 viewBox="0 0 192 192" enable-background="new 0 0 192 192" xml:space="preserve">
<g>
	<path fill="#fff" d="M100,161.5V148c0-2.2-1.8-4-4-4c-2.2,0-4,1.8-4,4v13.5c-1.2,1.1-2,2.7-2,4.5c0,3.3,2.7,6,6,6s6-2.7,6-6
		C102,164.2,101.2,162.6,100,161.5z"/>
	<path fill="#fff" d="M111.3,56.8c-1.8-0.2-3.3,1.2-3.3,3c0,1.5,1.2,2.8,2.7,3c3.8,0.4,7.5,1,11.1,1.7l-12.6,12.6c-1.6,1.6-1.6,4.1,0,5.7
		s4.1,1.6,5.7,0l15.8-15.8c0.1-0.1,0.1-0.1,0.2-0.2c5.8,1.7,11.2,3.8,16,6.3c10.1,5.3,16.6,12.1,18.5,19H112c-2.2,0-4,1.8-4,4
		c0,2.2,1.8,4,4,4h53.4c-1.8,6.9-8.3,13.6-18.5,19c-13.5,7.1-31.6,11-50.9,11c-9,0-17.7-0.9-25.9-2.5L98.7,99c0,0,0-0.1,0.1-0.1
		c0.8-0.7,1.3-1.8,1.3-2.9V30.5c1.2-1.1,2-2.7,2-4.5c0-3.3-2.7-6-6-6s-6,2.7-6,6c0,1.8,0.8,3.4,2,4.5V92H26.6
		c1.8-6.9,8.3-13.6,18.5-19c10-5.3,22.5-8.8,36.2-10.2c1.5-0.2,2.7-1.4,2.7-3c0-1.8-1.6-3.2-3.3-3C46,60.6,20,76.7,20,96
		c0,22.1,34,40,76,40c42,0,76-17.9,76-40C172,76.7,146,60.6,111.3,56.8z M61.5,125.4c-6-1.7-11.6-3.9-16.5-6.5
		c-10.1-5.3-16.6-12.1-18.5-19h59.8l-23.8,23.8C62,124.3,61.7,124.9,61.5,125.4z"/>
</g>
</svg>
