<?xml version="1.0" encoding="utf-8"?>
<!-- Generator: Adobe Illustrator 19.0.0, SVG Export Plug-In . SVG Version: 6.00 Build 0)  -->
<svg version="1.1" id="Layer_16" xmlns="http://www.w3.org/2000/svg" xmlns:xlink="http://www.w3.org/1999/xlink" x="0px" y="0px"
	 viewBox="0 0 192 192" enable-background="new 0 0 192 192" xml:space="preserve">
<g>
	<path fill="#fff" d="M33.2,93.5c-17.9,17.9-17.9,47.1,0,65.1c17.9,17.9,46.9,17.9,64.8,0.2c0,0,0,0,0.1,0l0.1-0.1c0,0,0,0,0,0c0,0,0,0,0,0
		l73.3-73.3c0.8-0.8,0.8-2.1,0-2.9l-2.8-2.8c0,0,0,0,0,0l0,0L153.2,64l0,0l-2.8-2.8c-0.8-0.8-2-0.8-2.8,0l-18.4,18.4
		c-0.8,0.8-0.8,2,0,2.8l2.8,2.8l14.1,14.1c0.8,0.8,0.8,2,0,2.8l-50.9,50.9l0,0c0,0,0,0,0,0c-0.4,0.4-0.8,0.8-1.2,1.2l0,0
		c-15.6,15.6-40.9,15.6-56.6,0c-15.6-15.6-15.6-40.9,0-56.6c0.4-0.4,0.8-0.8,1.3-1.2l0,0l43-43c1.2-1.2,1.3-3.1,0.2-4.3
		c-1.2-1.3-3.1-1.3-4.3-0.1L34.2,92.5c-0.1,0.1-0.1,0.1-0.2,0.2C33.8,93,33.5,93.3,33.2,93.5z M150.4,95.1l-12.7-12.7
		c-0.8-0.8-0.8-2,0-2.8l9.9-9.9c0.8-0.8,2-0.8,2.8,0l12.7,12.7c0.8,0.8,0.8,2,0,2.8l-9.9,9.9C152.5,95.9,151.2,95.9,150.4,95.1z"/>
	<path fill="#fff" d="M88.9,42.1l2.1,2.1l13.4,13.4c1.2,1.2,1.2,3.1,0,4.2l-50.6,50.6l0,0c-6.6,7.1-6.5,18.1,0.4,25c6.8,6.8,17.8,7,24.9,0.5l0,0
		l0.6-0.6c0,0,0,0,0,0l0,0l43.1-43.1c1.2-1.2,1.2-3.1,0-4.2s-3.1-1.2-4.2,0l-43.1,43.1c-4.7,4.7-12.3,4.7-17,0
		c-4.7-4.7-4.7-12.3,0-17l0,0l71.4-71.4c1.2-1.2,1.2-3.1,0-4.2l-2.1-2.1l0,0L112.2,23l0,0l-2.1-2.1c-1.2-1.2-3.1-1.2-4.2,0l-2.2,2.2
		L91,35.7l-2.1,2.1C87.7,39,87.7,40.9,88.9,42.1z M105.8,29.4c1.2-1.2,3.1-1.2,4.2,0l11.3,11.3c1.2,1.2,1.2,3.1,0,4.2l-8.4,8.4
		c-1.2,1.2-3.1,1.2-4.2,0L97.4,42.1c-1.2-1.2-1.2-3.1,0-4.2L105.8,29.4z"/>
</g>
</svg>
