<?xml version="1.0" encoding="utf-8"?>
<!-- Generator: Adobe Illustrator 19.0.0, SVG Export Plug-In . SVG Version: 6.00 Build 0)  -->
<svg version="1.1" id="Layer_16" xmlns="http://www.w3.org/2000/svg" xmlns:xlink="http://www.w3.org/1999/xlink" x="0px" y="0px"
	 viewBox="0 0 192 192" enable-background="new 0 0 192 192" xml:space="preserve">
<g>
	<path fill="#fff" d="M96,94.1c-2.9,0-5.7,0.9-7.9,2.5L68.3,76.8c-1-1-2.6-1-3.6,0l0,0c-1,1-1,2.6,0,3.6l19.8,19.8c-1.6,2.3-2.5,5-2.5,7.9
		c0,7.7,6.3,14,14,14c7.7,0,14-6.3,14-14C110,100.4,103.7,94.1,96,94.1z M96,116.1c-4.4,0-8-3.6-8-8s3.6-8,8-8s8,3.6,8,8
		S100.4,116.1,96,116.1z"/>
	<path fill="#fff" d="M142.9,64.8l15.3-15.3c1-1,1-2.6,0-3.6c-1-1-2.6-1-3.6,0l-15.3,15.3c-10.7-9.8-24.7-16.1-40.1-16.8V26H113c1.7,0,3-1.3,3-3
		s-1.3-3-3-3H79c-1.7,0-3,1.3-3,3s1.3,3,3,3h13.9v18.4C59.1,46,32.2,73.9,32.2,108.1c0,35.2,28.6,63.8,63.8,63.8
		c35.2,0,63.8-28.6,63.8-63.8C159.8,91.4,153.4,76.2,142.9,64.8z M96,165.9c-31.9,0-57.8-25.9-57.8-57.8S64.1,50.3,96,50.3
		s57.8,25.9,57.8,57.8S127.9,165.9,96,165.9z"/>
</g>
</svg>
