<?xml version="1.0" encoding="utf-8"?>
<!-- Generator: Adobe Illustrator 19.0.0, SVG Export Plug-In . SVG Version: 6.00 Build 0)  -->
<svg version="1.1" id="Layer_13" xmlns="http://www.w3.org/2000/svg" xmlns:xlink="http://www.w3.org/1999/xlink" x="0px" y="0px"
	 viewBox="0 0 192 192" enable-background="new 0 0 192 192" xml:space="preserve">
<g>
	<path fill="#fff"  d="M96,24c6.6,0,12,5.4,12,12v85v2.1l1.7,1.2c6.4,4.5,10.3,11.9,10.3,19.7c0,13.2-10.8,24-24,24c-13.2,0-24-10.8-24-24
		c0-7.8,3.8-15.2,10.3-19.7l1.7-1.2V121V36C84,29.4,89.4,24,96,24 M96,20L96,20c-8.8,0-16,7.2-16,16v85c-7.3,5.1-12,13.5-12,23
		c0,15.5,12.5,28,28,28s28-12.5,28-28c0-9.5-4.7-17.9-12-23V36C112,27.2,104.8,20,96,20L96,20z"/>
</g>
<path fill="#fff" d="M132,44h-4c-2.2,0-4-1.8-4-4v-4c0-2.2,1.8-4,4-4h4c2.2,0,4,1.8,4,4v4C136,42.2,134.2,44,132,44z"/>
<path fill="#fff" d="M132,68h-4c-2.2,0-4-1.8-4-4v-4c0-2.2,1.8-4,4-4h4c2.2,0,4,1.8,4,4v4C136,66.2,134.2,68,132,68z"/>
<path fill="#fff" d="M132,92h-4c-2.2,0-4-1.8-4-4v-4c0-2.2,1.8-4,4-4h4c2.2,0,4,1.8,4,4v4C136,90.2,134.2,92,132,92z"/>
<path fill="#fff" d="M132,116h-4c-2.2,0-4-1.8-4-4v-4c0-2.2,1.8-4,4-4h4c2.2,0,4,1.8,4,4v4C136,114.2,134.2,116,132,116z"/>
<path fill="#fff" d="M100,128.5V52c0-2.2-1.8-4-4-4c-2.2,0-4,1.8-4,4v76.5c-6.9,1.8-12,8-12,15.5c0,8.8,7.2,16,16,16s16-7.2,16-16
	C112,136.5,106.9,130.3,100,128.5z"/>
</svg>
