<?xml version="1.0" encoding="utf-8"?>
<!-- Generator: Adobe Illustrator 19.0.0, SVG Export Plug-In . SVG Version: 6.00 Build 0)  -->
<svg version="1.1" id="Layer_13" xmlns="http://www.w3.org/2000/svg" xmlns:xlink="http://www.w3.org/1999/xlink" x="0px" y="0px"
	 viewBox="0 0 192 192" enable-background="new 0 0 192 192" xml:space="preserve">
<path fill="#fff" d="M144,26.4l14.8,20c4.9,6.7,9.2,12.4,9.2,20.7c0,0,0,0.1,0,0.1c0.2,13.5-10.6,24.6-24.1,24.8
	c-6.5-0.1-12.6-2.7-17.2-7.4c-4.6-4.7-7-10.9-6.9-17.4c0,0,0,0,0-0.1c0-5.3,1.9-10.5,6.3-16.8c0,0,0,0,0,0c1.8-2.7,3.8-5.2,5.9-7.9
	c0.7-0.9,1.4-1.9,2.2-2.8c0,0,0,0,0-0.1c2.2-3,4.4-6,6.6-8.9c0,0,0.1-0.1,0.1-0.2C141.3,30,142.6,28.1,144,26.4 M144.2,20
	c-0.6,0-6.2,7.6-6.6,8.3c-2.2,3-4.4,5.9-6.6,8.9c-2.8,3.6-5.6,7.1-8.2,10.9c-3.9,5.6-7,11.8-7,19.1c-0.2,15.7,12.4,28.6,28.1,28.8
	c0,0,0,0,0,0c15.7-0.2,28.3-13.1,28.1-28.8c0,0,0,0,0,0c0-9.4-4.7-16-10-23.1L144.2,20C144.2,20,144.2,20,144.2,20L144.2,20z"/>
<path fill="#fff" d="M148,113.5l12.2,16.5c4.2,5.6,7.8,10.5,7.8,17.4c0,0,0,0.1,0,0.1c0.1,5.4-2,10.6-5.8,14.4
	c-3.8,3.9-8.8,6-14.2,6.1c-11.2-0.2-20.1-9.4-20-20.6c0,0,0,0,0-0.1c0-4.4,1.6-8.8,5.3-14c0,0,0,0,0,0c1.5-2.3,3.2-4.4,5-6.7
	c0.6-0.8,1.2-1.6,1.9-2.4c0,0,0,0,0-0.1c1.9-2.6,3.8-5.1,5.6-7.6c0,0,0.1-0.1,0.1-0.2C146.2,116,147.1,114.8,148,113.5 M148.2,107.1
	c-0.5,0-5.3,6.5-5.6,7.1c-1.9,2.5-3.8,5.1-5.6,7.6c-2.4,3.1-4.8,6.1-7,9.3c-3.3,4.8-6,10.1-6,16.3c-0.2,13.4,10.6,24.5,24,24.6
	c0,0,0,0,0,0c13.4-0.2,24.2-11.2,24-24.6c0,0,0,0,0,0c0-8.1-4-13.6-8.6-19.8L148.2,107.1C148.2,107.1,148.2,107.1,148.2,107.1
	L148.2,107.1z"/>
<g>
	<path fill="#fff" d="M60.1,49.8l21.7,29.3C88.8,88.7,95,97,95,109c0,0,0,0.1,0,0.1c0.1,9.5-3.5,18.4-10.1,25.2
		c-6.6,6.8-15.5,10.6-24.9,10.7c-9.5-0.1-18.3-4-24.9-10.7c-6.6-6.8-10.2-15.8-10.1-25.3c0,0,0,0,0-0.1c0-7.8,2.8-15.3,9.1-24.3
		c0,0,0,0,0-0.1c2.6-3.8,5.5-7.6,8.4-11.3c1-1.3,2.1-2.6,3.1-4c0,0,0-0.1,0.1-0.1c3.1-4.2,6.3-8.5,9.4-12.7c0-0.1,0.1-0.1,0.1-0.2
		C55.7,55.6,58,52.5,60.1,49.8 M60.4,41.9c-0.8,0-8.8,10.9-9.4,11.8c-3.1,4.2-6.3,8.5-9.4,12.7c-3.9,5.1-8,10.2-11.6,15.5
		c-5.6,8-10,16.8-10,27.2c-0.3,22.4,17.6,40.8,40,41.1c0,0,0,0,0,0c22.4-0.3,40.3-18.7,40-41c0,0,0,0,0-0.1
		c0-13.5-6.7-22.7-14.3-32.9L60.4,41.9C60.4,41.9,60.4,41.9,60.4,41.9L60.4,41.9z"/>
	<path fill="#fff" d="M62.6,133.3c0-1.1-0.9-2-2.1-2c-0.2,0-0.4,0-0.5,0c-10.7-0.2-19.5-7.8-21.6-17.8c-0.2-0.9-1-1.6-1.9-1.6h0
		c-1.3,0-2.2,1.1-2,2.4c2.5,11.9,12.9,20.8,25.6,21c0,0,0,0,0,0c0.2,0,0.5,0,0.7,0C61.8,135.3,62.6,134.4,62.6,133.3L62.6,133.3z"/>
</g>
</svg>
