<?xml version="1.0" encoding="utf-8"?>
<!-- Generator: Adobe Illustrator 16.0.0, SVG Export Plug-In . SVG Version: 6.00 Build 0)  -->
<!DOCTYPE svg PUBLIC "-//W3C//DTD SVG 1.1//EN" "http://www.w3.org/Graphics/SVG/1.1/DTD/svg11.dtd">
<svg version="1.1" id="Layer_1" xmlns="http://www.w3.org/2000/svg" xmlns:xlink="http://www.w3.org/1999/xlink" x="0px" y="0px"
	 width="512px" height="512px" viewBox="0 0 512 512" enable-background="new 0 0 512 512" xml:space="preserve">
<g>
	<g>
		<path fill="#FFFFFF" d="M469.04,381.334c-6.541-11.753-18.345-19.736-31.537-21.605l-3.003-5.395l49.351-27.469
			c3.916-2.18,5.322-7.119,3.143-11.035l-13.204-23.722c-2.18-3.916-7.118-5.322-11.034-3.143s-5.323,7.118-3.144,11.034
			l9.258,16.633l-49.35,27.469c-3.917,2.181-5.323,7.118-3.144,11.035l9.042,16.243c1.393,2.502,3.999,4.084,6.86,4.163
			c9.38,0.264,18.033,5.506,22.584,13.682c7.146,12.84,2.515,29.102-10.326,36.249s-29.102,2.516-36.249-10.325
			c-4.552-8.177-4.448-18.293,0.271-26.4c1.438-2.475,1.469-5.525,0.076-8.026l-9.041-16.243c-2.18-3.917-7.118-5.323-11.035-3.144
			l-49.351,27.47l-27.47-49.351c-2.18-3.916-7.118-5.323-11.034-3.144l-16.247,9.043c-2.502,1.394-4.086,4.002-4.164,6.863
			c-0.261,9.376-5.503,18.029-13.681,22.58c-12.839,7.146-29.1,2.516-36.247-10.325c-7.147-12.84-2.516-29.101,10.324-36.248
			c8.177-4.551,18.293-4.447,26.399,0.271c2.475,1.439,5.526,1.47,8.027,0.077l16.247-9.043c3.916-2.18,5.322-7.119,3.143-11.035
			l-27.47-49.352l42.263-23.523l3.003,5.395c-5.364,12.194-4.798,26.433,1.745,38.188c11.497,20.656,37.659,28.108,58.317,16.609
			c20.658-11.498,28.11-37.66,16.612-58.317c-6.542-11.753-18.345-19.737-31.537-21.604l-3.003-5.396l42.261-23.523l49.76,89.396
			c2.18,3.917,7.118,5.323,11.035,3.144c3.916-2.18,5.322-7.118,3.143-11.035l-53.705-96.484l-27.47-49.351l5.396-3.003
			c12.193,5.364,26.432,4.797,38.186-1.746c20.658-11.499,28.11-37.659,16.611-58.318c-11.499-20.658-37.66-28.111-58.318-16.612
			c-11.752,6.541-19.735,18.343-21.604,31.536l-5.396,3.003l-27.469-49.348c0,0,0,0,0-0.001c-2.18-3.916-7.118-5.323-11.034-3.143
			l-143.839,80.063l-49.352,27.47l-3.004-5.397c5.364-12.193,4.8-26.431-1.743-38.187C106.394,68.302,80.232,60.85,59.575,72.348
			c-20.658,11.499-28.111,37.661-16.612,58.319c6.542,11.752,18.344,19.734,31.539,21.602l3.004,5.397l-49.352,27.47
			c-0.001,0-0.001,0-0.001,0c-3.916,2.18-5.323,7.118-3.144,11.034l13.992,25.138c2.18,3.916,7.119,5.323,11.035,3.143
			c3.917-2.18,5.323-7.119,3.144-11.035l-10.046-18.049l49.352-27.47c3.916-2.18,5.322-7.119,3.142-11.035l-9.042-16.246
			c-1.392-2.501-4-4.085-6.862-4.164c-9.38-0.262-18.032-5.504-22.582-13.678c-7.147-12.841-2.515-29.103,10.326-36.25
			c12.84-7.147,29.102-2.515,36.25,10.326c4.551,8.176,4.448,18.292-0.272,26.396c-1.441,2.474-1.471,5.525-0.078,8.027
			l9.042,16.246c2.18,3.916,7.119,5.323,11.035,3.143l49.351-27.469l27.47,49.352c2.18,3.916,7.118,5.323,11.035,3.143l16.246-9.042
			c2.501-1.392,4.085-4,4.164-6.862c0.263-9.38,5.504-18.033,13.679-22.583c12.841-7.147,29.103-2.516,36.249,10.324
			c7.147,12.84,2.516,29.102-10.325,36.25c-8.175,4.55-18.29,4.447-26.4-0.271c-2.474-1.441-5.525-1.47-8.026-0.078l-16.246,9.042
			c-3.917,2.18-5.323,7.119-3.143,11.035l27.47,49.352l-42.261,23.524l-3.005-5.398c5.363-12.195,4.799-26.434-1.743-38.186
			c-11.499-20.658-37.661-28.11-58.32-16.611c-20.659,11.499-28.111,37.661-16.612,58.319c6.542,11.753,18.345,19.735,31.538,21.603
			l3.004,5.397l-42.264,23.524l-49.847-89.553c-2.18-3.916-7.119-5.322-11.035-3.143s-5.323,7.119-3.144,11.035l53.793,96.643
			l27.47,49.352l-5.395,3.003c-12.194-5.363-26.432-4.798-38.187,1.745c-20.657,11.498-28.109,37.659-16.611,58.317
			c11.498,20.657,37.66,28.11,58.318,16.612c11.752-6.542,19.736-18.344,21.604-31.537l5.396-3.003l27.469,49.35
			c2.18,3.915,7.119,5.322,11.035,3.143l48.095-26.771l8.972-4.994l86.773-48.299l49.352-27.47l3.002,5.394
			c-5.362,12.195-4.797,26.435,1.745,38.188c11.499,20.657,37.66,28.109,58.319,16.61
			C473.086,428.152,480.538,401.991,469.04,381.334z M235.62,202.703l5.396-3.004c12.194,5.363,26.434,4.797,38.186-1.744
			c20.658-11.498,28.11-37.66,16.611-58.319c-11.498-20.658-37.659-28.109-58.318-16.61c-11.752,6.541-19.736,18.344-21.604,31.538
			l-5.395,3.003l-23.524-42.263l129.661-72.171l27.469,49.35c2.18,3.916,7.118,5.322,11.034,3.143l16.244-9.042
			c2.501-1.392,4.084-4,4.164-6.861c0.264-9.379,5.505-18.032,13.68-22.582c12.841-7.147,29.102-2.516,36.249,10.325
			c7.146,12.839,2.515,29.101-10.325,36.248c-8.177,4.551-18.291,4.448-26.398-0.271c-2.474-1.439-5.525-1.469-8.026-0.077
			l-16.246,9.043c-3.916,2.18-5.323,7.118-3.143,11.035l27.469,49.351l-49.35,27.469c-3.916,2.18-5.323,7.118-3.144,11.034
			l9.043,16.246c1.392,2.501,4,4.085,6.861,4.165c9.379,0.262,18.032,5.504,22.583,13.679c7.146,12.84,2.515,29.101-10.326,36.248
			s-29.102,2.517-36.249-10.324c-4.551-8.176-4.448-18.292,0.271-26.399c1.44-2.474,1.471-5.525,0.078-8.027l-9.043-16.246
			c-2.18-3.916-7.118-5.323-11.035-3.143l-49.351,27.469L235.62,202.703L235.62,202.703z M245.345,441.051l-8.973,4.994
			l-41.005,22.824l-27.468-49.35h0.001c-2.18-3.917-7.119-5.323-11.035-3.144l-16.246,9.043c-2.501,1.392-4.084,4-4.165,6.861
			c-0.264,9.379-5.504,18.031-13.679,22.581c-12.84,7.147-29.102,2.516-36.25-10.326c-7.146-12.839-2.514-29.1,10.326-36.247
			c8.177-4.551,18.292-4.448,26.397,0.271c2.475,1.439,5.526,1.469,8.027,0.076l16.246-9.042c3.916-2.18,5.323-7.119,3.143-11.035
			l-27.469-49.351l49.353-27.471c3.916-2.18,5.322-7.119,3.143-11.034l-9.043-16.247c-1.392-2.501-4.001-4.085-6.862-4.164
			c-9.38-0.261-18.032-5.502-22.582-13.676c-7.147-12.841-2.515-29.103,10.327-36.25c12.842-7.148,29.104-2.517,36.251,10.324
			c4.55,8.174,4.445,18.291-0.273,26.399c-1.44,2.473-1.469,5.524-0.077,8.025l9.043,16.247c2.18,3.915,7.119,5.322,11.035,3.143
			l49.351-27.469l23.524,42.262l-5.398,3.005c-12.194-5.363-26.434-4.798-38.189,1.744c-20.656,11.498-28.107,37.66-16.608,58.318
			c11.498,20.657,37.658,28.11,58.316,16.611c11.756-6.543,19.739-18.347,21.605-31.538l5.397-3.004l23.524,42.262L245.345,441.051
			L245.345,441.051z"/>
	</g>
</g>
</svg>
